<svg viewBox="0 0 64 64" xml:space="preserve" xmlns="http://www.w3.org/2000/svg"><g fill="#ffffff" class="fill-241f20"><path d="M37.096 20.415h-6.29c-2.087 0-2.303-1.527-2.315-2.063v-2.467c0-2.151-1.474-3.898-3.302-3.898h-5.563c-1.828 0-3.3 1.747-3.3 3.898v2.582c-.046.675-.374 1.948-2.196 1.948H7.718a3.223 3.223 0 0 0-3.234 3.234v3.55s-.04 3.149 1.316 7.929c.001.002.001.004.003.005l5.498 19.376c.003.017.864 4.09.864 5.178v2.659c0 .888.712 1.615 1.62 1.615H31.03c.905 0 1.617-.728 1.617-1.615v-1.271c.037-1.002.378-3.274.653-4.969l1.273-5.333 4.396-15.486v-.001c.939-3.31 1.36-8.408 1.36-8.408V23.65a3.22 3.22 0 0 0-3.233-3.235zm-3.661 13.86-.457 2.398-2.381 11.141-2.506 10.009c-.396 1.589-1.482 1.897-2.088 1.945h-7.13c-.536-.047-1.651-.369-2.104-2.204l-2.277-9.22-2.896-13.337-.19-1.159-.002-.003-.13-.791c-.071-.964.18-2.473 2.528-2.473h1.294c.367.009 1.41.169 1.721 1.665l2.828 13.63c.002.002.42.769.51.002l1.626-14.01c.003-.026.192-1.287 1.691-1.287h7.38c.798.016 3.252.327 2.583 3.694zM56.406 32.084h-.87c-1.366.025-1.496-1.313-1.506-1.76V14.057c.007-.588.084-3.088 1.014-5.815 0-.006 0-.009.003-.014l2.305-6.762v-.004C57.857-.02 56.206.04 56.206.04h-8.004c-1.536 0-1.199 1.355-1.088 1.698l.004.012.021.065 2.283 6.79s.91 2.76.91 5.188v16.554c0 1.436-.802 1.701-1.245 1.738h-1.041c-1.719 0-3.109 1.985-3.109 4.434v23.008c0 2.451 1.391 4.436 3.109 4.436h8.36c1.713 0 3.11-1.984 3.11-4.436V36.518c.001-2.449-1.397-4.434-3.11-4.434z"></path></g></svg>