<?xml version="1.0" encoding="UTF-8"?>
<svg version="1.1" xmlns="http://www.w3.org/2000/svg" width="132" height="40">
<path d="M0 0 C0.99 0.33 1.98 0.66 3 1 C3.6875 3.0625 3.6875 3.0625 4 5 C4.66 5 5.32 5 6 5 C6 5.66 6 6.32 6 7 C7.65 7 9.3 7 11 7 C11 8.32 11 9.64 11 11 C10.34 11.66 9.68 12.32 9 13 C8.75787127 14.98128508 8.75787127 14.98128508 8.875 17.125 C8.91625 18.40375 8.9575 19.6825 9 21 C8.33613281 20.91621094 7.67226563 20.83242188 6.98828125 20.74609375 C0.45279152 19.94574958 0.45279152 19.94574958 -6 21 C-5.9175 19.9275 -5.835 18.855 -5.75 17.75 C-5.63762783 13.95990735 -5.63762783 13.95990735 -8 11.5625 C-8.66 11.046875 -9.32 10.53125 -10 10 C-9.67 9.01 -9.34 8.02 -9 7 C-8.071875 6.95875 -7.14375 6.9175 -6.1875 6.875 C-2.71052362 6.31140969 -2.71052362 6.31140969 -1.125 2.9375 C-0.75375 1.968125 -0.3825 0.99875 0 0 Z " fill="#B7B521" transform="translate(40,9)"/>
<path d="M0 0 C0.66 0 1.32 0 2 0 C2.165 0.94875 2.33 1.8975 2.5 2.875 C3.62222102 6.08126412 3.62222102 6.08126412 5.9140625 6.84375 C7.92184864 7.32618625 9.96141284 7.67119562 12 8 C10.98794398 10.02411204 9.99595882 12.0065935 8.8125 13.9375 C7.75655008 16.61798826 8.24213315 18.27167933 9 21 C8.34773438 20.91621094 7.69546875 20.83242188 7.0234375 20.74609375 C2.11750856 20.17445896 -2.13127185 19.84688018 -7 21 C-6.938125 19.741875 -6.87625 18.48375 -6.8125 17.1875 C-6.76367078 13.83041021 -6.76367078 13.83041021 -8.5 11 C-8.995 10.67 -9.49 10.34 -10 10 C-9.67 9.01 -9.34 8.02 -9 7 C-7.02 7 -5.04 7 -3 7 C-2.690625 6.030625 -2.38125 5.06125 -2.0625 4.0625 C-1 1 -1 1 0 0 Z " fill="#F7DD0D" transform="translate(92,9)"/>
<path d="M0 0 C0.66 0 1.32 0 2 0 C2.350625 0.94875 2.70125 1.8975 3.0625 2.875 C4.7714341 6.34336062 4.7714341 6.34336062 8.6875 7.375 C9.780625 7.58125 10.87375 7.7875 12 8 C10.98794398 10.02411204 9.99595882 12.0065935 8.8125 13.9375 C7.75655008 16.61798826 8.24213315 18.27167933 9 21 C8.34773438 20.91621094 7.69546875 20.83242188 7.0234375 20.74609375 C2.11750856 20.17445896 -2.13127185 19.84688018 -7 21 C-6.938125 19.741875 -6.87625 18.48375 -6.8125 17.1875 C-6.76367078 13.83041021 -6.76367078 13.83041021 -8.5 11 C-8.995 10.67 -9.49 10.34 -10 10 C-9.67 9.01 -9.34 8.02 -9 7 C-7.02 7 -5.04 7 -3 7 C-2.690625 6.030625 -2.38125 5.06125 -2.0625 4.0625 C-1 1 -1 1 0 0 Z " fill="#CDBC2D" transform="translate(66,9)"/>
<path d="M0 0 C0.66 0 1.32 0 2 0 C2.350625 0.94875 2.70125 1.8975 3.0625 2.875 C4.7714341 6.34336062 4.7714341 6.34336062 8.6875 7.375 C9.780625 7.58125 10.87375 7.7875 12 8 C11.67 8.99 11.34 9.98 11 11 C10.34 11 9.68 11 9 11 C8.22157062 14.40562852 7.90021879 17.50765756 8 21 C7.41992188 20.91621094 6.83984375 20.83242188 6.2421875 20.74609375 C1.57684697 20.13790579 -2.35442117 19.92794335 -7 21 C-6.938125 19.741875 -6.87625 18.48375 -6.8125 17.1875 C-6.76367078 13.83041021 -6.76367078 13.83041021 -8.5 11 C-8.995 10.67 -9.49 10.34 -10 10 C-9.67 9.01 -9.34 8.02 -9 7 C-7.02 7 -5.04 7 -3 7 C-2.690625 6.030625 -2.38125 5.06125 -2.0625 4.0625 C-1 1 -1 1 0 0 Z " fill="#F5DA0D" transform="translate(118,9)"/>
<path d="M0 0 C2.50037734 2.17424117 3.43628586 3.73045798 4 7 C5.423125 6.9690625 5.423125 6.9690625 6.875 6.9375 C10 7 10 7 12 8 C12 8.66 12 9.32 12 10 C11.34 10.556875 10.68 11.11375 10 11.6875 C7.62414331 13.96533931 7.62414331 13.96533931 7.75 17.75 C7.87375 19.35875 7.87375 19.35875 8 21 C7.33613281 20.91621094 6.67226563 20.83242188 5.98828125 20.74609375 C-0.54720848 19.94574958 -0.54720848 19.94574958 -7 21 C-6.938125 19.741875 -6.87625 18.48375 -6.8125 17.1875 C-6.7399651 13.86656162 -6.7399651 13.86656162 -8.5 11.125 C-8.995 10.75375 -9.49 10.3825 -10 10 C-10 9.34 -10 8.68 -10 8 C-9.0925 7.79375 -8.185 7.5875 -7.25 7.375 C-3.24267224 5.6795921 -2.10515339 3.72450216 0 0 Z " fill="#FBE006" transform="translate(15,9)"/>
<path d="M0 0 C0 0.66 0 1.32 0 2 C0.66 2 1.32 2 2 2 C2 2.66 2 3.32 2 4 C2.99 4 3.98 4 5 4 C5 5.65 5 7.3 5 9 C4.34 9 3.68 9 3 9 C3 10.65 3 12.3 3 14 C-1.455 14.495 -1.455 14.495 -6 15 C-6.65864363 11.64156959 -7.1360492 8.42739338 -7 5 C-3.3 0 -3.3 0 0 0 Z " fill="#FBE005" transform="translate(68,13)"/>
<path d="M0 0 C0.33 0.66 0.66 1.32 1 2 C2.65 2 4.3 2 6 2 C5.85950482 3.47968324 5.71245174 4.95874516 5.5625 6.4375 C5.48128906 7.26121094 5.40007813 8.08492187 5.31640625 8.93359375 C5 11 5 11 4 12 C1.01110641 12.45765667 -1.98969648 12.70320951 -5 13 C-5.33 10.03 -5.66 7.06 -6 4 C-4.02 2.68 -2.04 1.36 0 0 Z " fill="#FBE006" transform="translate(41,15)"/>
<path d="M0 0 C0.33 0.66 0.66 1.32 1 2 C2.423125 1.9690625 2.423125 1.9690625 3.875 1.9375 C7 2 7 2 9 3 C9 3.66 9 4.32 9 5 C8.34 5.556875 7.68 6.11375 7 6.6875 C4.62414331 8.96533931 4.62414331 8.96533931 4.75 12.75 C4.87375 14.35875 4.87375 14.35875 5 16 C4.33613281 15.91621094 3.67226563 15.83242188 2.98828125 15.74609375 C-3.54720848 14.94574958 -3.54720848 14.94574958 -10 16 C-10 14.35 -10 12.7 -10 11 C-9.34 11.66 -8.68 12.32 -8 13 C-6.08505313 13.20472835 -6.08505313 13.20472835 -4 13.0625 C-0.19661017 12.90169492 -0.19661017 12.90169492 2 14 C1.51515724 9.35413108 1.51515724 9.35413108 0 5 C0.66 5 1.32 5 2 5 C2 4.34 2 3.68 2 3 C1.34 3 0.68 3 0 3 C0 2.01 0 1.02 0 0 Z " fill="#C3AD2A" transform="translate(18,14)"/>
<path d="M0 0 C1.65 0.33 3.3 0.66 5 1 C4.67 1.99 4.34 2.98 4 4 C3.96045766 6.33299825 3.95598268 8.66708189 4 11 C4.62648438 10.98839844 5.25296875 10.97679687 5.8984375 10.96484375 C6.71570313 10.95582031 7.53296875 10.94679688 8.375 10.9375 C9.18710938 10.92589844 9.99921875 10.91429687 10.8359375 10.90234375 C13 11 13 11 15 12 C15.33 8.7 15.66 5.4 16 2 C16.66 2 17.32 2 18 2 C18.33 2.99 18.66 3.98 19 5 C18.67 5.61875 18.34 6.2375 18 6.875 C16.7088601 9.61867229 17.20538314 11.13937931 18 14 C17.34773438 13.91621094 16.69546875 13.83242188 16.0234375 13.74609375 C11.11750856 13.17445896 6.86872815 12.84688018 2 14 C2.061875 12.741875 2.12375 11.48375 2.1875 10.1875 C2.23632922 6.83041021 2.23632922 6.83041021 0.5 4 C0.005 3.67 -0.49 3.34 -1 3 C-0.67 2.01 -0.34 1.02 0 0 Z " fill="#ACA524" transform="translate(83,16)"/>
<path d="M0 0 C0.99 0.33 1.98 0.66 3 1 C3.6875 3.0625 3.6875 3.0625 4 5 C4.66 5 5.32 5 6 5 C6 5.66 6 6.32 6 7 C7.65 7 9.3 7 11 7 C11 8.32 11 9.64 11 11 C9.02 11.99 9.02 11.99 7 13 C7 11.35 7 9.7 7 8 C6.21625 8 5.4325 8 4.625 8 C3.08333333 8 1.54166667 8 0 8 C-0.99 8.33 -1.98 8.66 -3 9 C-3.66 8.34 -4.32 7.68 -5 7 C-4.54625 6.5875 -4.0925 6.175 -3.625 5.75 C-1.94049626 3.93591905 -1.00734029 2.24714373 0 0 Z " fill="#F4D918" transform="translate(40,9)"/>
<path d="M0 0 C0.66 0 1.32 0 2 0 C2.350625 0.94875 2.70125 1.8975 3.0625 2.875 C4.7714341 6.34336062 4.7714341 6.34336062 8.6875 7.375 C9.780625 7.58125 10.87375 7.7875 12 8 C11.67 8.99 11.34 9.98 11 11 C10.34 11 9.68 11 9 11 C8.71125 11.639375 8.4225 12.27875 8.125 12.9375 C7 15 7 15 5 16 C5 14.68 5 13.36 5 12 C5.99 12 6.98 12 8 12 C6.36526484 8.87525373 6.36526484 8.87525373 3.875 8.3125 C2.946875 8.1578125 2.946875 8.1578125 2 8 C2 7.01 2 6.02 2 5 C1.01 5 0.02 5 -1 5 C-1 5.66 -1 6.32 -1 7 C-1.66 7 -2.32 7 -3 7 C-1.125 1.125 -1.125 1.125 0 0 Z " fill="#C0B32C" transform="translate(118,9)"/>
<path d="M0 0 C1.98 0.495 1.98 0.495 4 1 C3.34 1 2.68 1 2 1 C2 1.99 2 2.98 2 4 C3.65 4 5.3 4 7 4 C6.67 6.31 6.34 8.62 6 11 C7.65 11 9.3 11 11 11 C7.81237635 13.12508244 5.73487777 13.5020163 2 14 C2.061875 12.741875 2.12375 11.48375 2.1875 10.1875 C2.23632922 6.83041021 2.23632922 6.83041021 0.5 4 C0.005 3.67 -0.49 3.34 -1 3 C-0.67 2.01 -0.34 1.02 0 0 Z " fill="#C5C022" transform="translate(109,16)"/>
<path d="M0 0 C0.66 0 1.32 0 2 0 C2.66 1.98 3.32 3.96 4 6 C6.97 6.495 6.97 6.495 10 7 C10 7.33 10 7.66 10 8 C7.69 8 5.38 8 3 8 C2.67 6.68 2.34 5.36 2 4 C1.54625 4.495 1.0925 4.99 0.625 5.5 C-1 7 -1 7 -3 7 C-1.125 1.125 -1.125 1.125 0 0 Z " fill="#B1A62C" transform="translate(92,9)"/>
<path d="M0 0 C0.99 0.99 1.98 1.98 3 3 C2.34 4.32 1.68 5.64 1 7 C1 6.01 1 5.02 1 4 C0.34 4 -0.32 4 -1 4 C-1 5.32 -1 6.64 -1 8 C-3.31 8 -5.62 8 -8 8 C-7.13375 7.690625 -7.13375 7.690625 -6.25 7.375 C-3.18589456 5.50249112 -1.84460032 3.03041481 0 0 Z " fill="#C4B926" transform="translate(15,9)"/>
<path d="M0 0 C0.66 0 1.32 0 2 0 C2.33 0.99 2.66 1.98 3 3 C2.67 3.61875 2.34 4.2375 2 4.875 C0.7088601 7.61867229 1.20538314 9.13937931 2 12 C-0.9375 11.625 -0.9375 11.625 -4 11 C-4.33 10.34 -4.66 9.68 -5 9 C-3.68 9.33 -2.36 9.66 -1 10 C-0.67 6.7 -0.34 3.4 0 0 Z " fill="#C4AC2E" transform="translate(99,18)"/>
<path d="M0 0 C2.31 0.33 4.62 0.66 7 1 C6.67 1.99 6.34 2.98 6 4 C5.34 4 4.68 4 4 4 C3.71125 4.639375 3.4225 5.27875 3.125 5.9375 C2 8 2 8 0 9 C0 7.68 0 6.36 0 5 C0.99 5 1.98 5 3 5 C2.01 3.35 1.02 1.7 0 0 Z " fill="#CBB732" transform="translate(123,16)"/>
<path d="M0 0 C1.65 0 3.3 0 5 0 C4.67 1.32 4.34 2.64 4 4 C4.66 4 5.32 4 6 4 C6.125 6.875 6.125 6.875 6 10 C5.34 10.66 4.68 11.32 4 12 C3.896875 10.906875 3.79375 9.81375 3.6875 8.6875 C3.00272798 5.01463192 2.72080696 4.24762314 0 2 C0 1.34 0 0.68 0 0 Z " fill="#E2DF2B" transform="translate(5,17)"/>
<path d="M0 0 C0.99 0.33 1.98 0.66 3 1 C3.6875 3.0625 3.6875 3.0625 4 5 C4.66 5 5.32 5 6 5 C6 5.66 6 6.32 6 7 C3 7 3 7 1.3125 5.5 C0.879375 5.005 0.44625 4.51 0 4 C-0.33 4.99 -0.66 5.98 -1 7 C-1.66 6.67 -2.32 6.34 -3 6 C-2.01 4.02 -1.02 2.04 0 0 Z " fill="#AA9F2B" transform="translate(40,9)"/>
<path d="M0 0 C0.66 0 1.32 0 2 0 C2.33 2.64 2.66 5.28 3 8 C0.0625 7.625 0.0625 7.625 -3 7 C-3.33 6.34 -3.66 5.68 -4 5 C-3.01 4.67 -2.02 4.34 -1 4 C-0.26676204 1.98491642 -0.26676204 1.98491642 0 0 Z " fill="#CCB22C" transform="translate(46,22)"/>
<path d="M0 0 C0.66 0 1.32 0 2 0 C2.66 1.98 3.32 3.96 4 6 C3.34 6 2.68 6 2 6 C2 5.34 2 4.68 2 4 C1.54625 4.495 1.0925 4.99 0.625 5.5 C-1 7 -1 7 -3 7 C-1.125 1.125 -1.125 1.125 0 0 Z " fill="#B2AA2F" transform="translate(66,9)"/>
<path d="M0 0 C1.65 0.33 3.3 0.66 5 1 C4.67 2.65 4.34 4.3 4 6 C2.68 5.34 1.36 4.68 0 4 C0 2.68 0 1.36 0 0 Z " fill="#C7C228" transform="translate(83,16)"/>
<path d="M0 0 C0.309375 0.639375 0.61875 1.27875 0.9375 1.9375 C1.8345163 3.93610821 1.8345163 3.93610821 3 5 C4.66617115 5.04063832 6.33388095 5.042721 8 5 C4.81237635 7.12508244 2.73487777 7.5020163 -1 8 C-0.67 5.36 -0.34 2.72 0 0 Z " fill="#AEAC22" transform="translate(60,22)"/>
<path d="M0 0 C0.33 0 0.66 0 1 0 C1 1.98 1 3.96 1 6 C2.98 5.67 4.96 5.34 7 5 C4.08235 6.9451 2.37462715 7.45276317 -1 8 C-0.67 5.36 -0.34 2.72 0 0 Z " fill="#BCB72F" transform="translate(35,22)"/>
<path d="M0 0 C1.32 0.33 2.64 0.66 4 1 C2.25 4.875 2.25 4.875 0 6 C0 4.02 0 2.04 0 0 Z " fill="#C9AF37" transform="translate(48,16)"/>
<path d="" fill="#000000" transform="translate(0,0)"/>
<path d="" fill="#242424" transform="translate(0,0)"/>
</svg>
