<svg viewBox="0 0 24 24" xml:space="preserve" xmlns="http://www.w3.org/2000/svg" enable-background="new 0 0 24 24"><path d="M5 18H3c-1.1 0-2 .9-2 2s.9 2 2 2h2c1.1 0 2-.9 2-2s-.9-2-2-2zM13 16h-2c-1.1 0-2 .9-2 2v2c0 1.1.9 2 2 2h2c1.1 0 2-.9 2-2v-2c0-1.1-.9-2-2-2zM21 12h-2c-1.1 0-2 .9-2 2v6c0 1.1.9 2 2 2h2c1.1 0 2-.9 2-2v-6c0-1.1-.9-2-2-2zM22 2h-6.6c-.9 0-1.3 1.1-.7 1.7l1.9 1.9C12.9 9.8 7.6 13 2 13c-.6 0-1 .4-1 1s.4 1 1 1c6.7 0 12.9-1.9 17.4-6.6l1.8 1.8c.6.6 1.7.2 1.7-.7V3c.1-.6-.3-1-.9-1z" fill="#ffffff" class="fill-000000"></path></svg>