<svg id="Layer_1" version="1.1" viewBox="0 0 30 30" xml:space="preserve" xmlns="http://www.w3.org/2000/svg" enable-background="new 0 0 30 30"><path d="M28.8 12.9 27 20.2c-.5 2.3-2.2 4.1-4.4 4.9l-4.3 1.6c-.4.1-.8 0-1.1-.3L14.1 23c-1.6-1.7-2.2-4.1-1.7-6.4l1.7-7.3c.1-.4.5-.8 1-.8 4.6 0 9 1.1 13.1 3.1.5.4.7.9.6 1.3zm-12.5 4.9c-.5 1.9.7 3.8 2.6 4.2 1.9.5 3.8-.7 4.2-2.6m1.2-4.8c-.8-.2-1.6.3-1.8 1.1-.2.8.3 1.6 1.1 1.8.8.2 1.6-.3 1.8-1.1.2-.8-.3-1.6-1.1-1.8zM17.5 13c-.8-.2-1.6.3-1.8 1.1-.2.8.3 1.6 1.1 1.8.8.2 1.6-.3 1.8-1.1.2-.8-.3-1.6-1.1-1.8zM11 21.9l-2.1-.5c-2.3-.6-4.1-2.3-4.9-4.5l-2.8-8c-.2-.4 0-.9.4-1.2 3.9-2.5 8.1-4 12.7-4.4.5 0 .9.2 1 .7l1 2.8h-1.2c-1.4 0-2.6.9-2.9 2.3l-1.1 4.7c-.1 0-.2 0-.3.1-1.8.6-2.8 2.6-2.1 4.5l1.6-.6c-.1 1.3.1 2.7.7 4.1zM8.2 12c-.3-.8-1.1-1.2-1.9-.9-.8.2-1.3 1.1-1 1.9.3.8 1.1 1.2 1.9.9s1.2-1.1 1-1.9z" fill="#ffffff" class="fill-2fd9b9"></path></svg>