<svg viewBox="0 0 512 512" xml:space="preserve" xmlns="http://www.w3.org/2000/svg" enable-background="new 0 0 512 512"><path d="M438.8 320.6c-3.6-3.1-147.2-107.2-147.2-107.2l-.5-.5c-5.5-5.6-5.2-10.4-5.6-18.8 0 0-.9-69-2.2-92S270 64 256 64s-25.9 15-27.2 38-2.2 92-2.2 92c-.4 8.4-.1 13.2-5.6 18.8l-.5.5S77 317.4 73.3 320.5s-9.2 7.8-9.2 18.2c0 12.2 3.6 13.7 10.6 11.6 0 0 140.2-39.5 145.4-40.8s7.9.6 8.3 7.5.8 46.4.9 51-.6 4.7-2.9 7.4l-32 40.8c-1.7 2-2.7 4.5-2.7 7.3v12.4c0 6.3 2.8 7.3 8.2 4.9s32.6-17.4 32.6-17.4c.7-.3 4.6-1.9 6.4-1.9 4.2 0 8-.1 8.8 6.2 1.3 11.4 4.9 20.3 8.5 20.3 3.6 0 7.2-8.9 8.5-20.3.7-6.3 4.6-6.2 8.8-6.2 1.8 0 5.7 1.6 6.4 1.9 0 0 27.2 15 32.6 17.4s8.2 1.4 8.2-4.9v-12.4c0-2.8-1-5.4-2.7-7.3l-32-40.8c-2.3-2.7-2.9-2.9-2.9-7.4s.5-44.1.9-51 3.1-8.8 8.3-7.5 145.4 40.8 145.4 40.8c7.1 2.1 10.6.6 10.6-11.6-.3-10.3-5.8-15-9.5-18.1z" fill="#ffffff" class="fill-000000"></path></svg>