<svg viewBox="0 0 32 32" xml:space="preserve" xmlns="http://www.w3.org/2000/svg"><linearGradient gradientUnits="userSpaceOnUse" id="a" x1="14.112" x2="17.888" y1="19.449" y2="19.449"><stop offset="0" stop-color="#ffffff" class="stop-color-face2e"></stop><stop offset="1" stop-color="#ffffff" class="stop-color-fd9f27"></stop></linearGradient><path fill="url(#a)" d="M14.112 23.54 16 24.798l1.888-1.258L16 14.099z" class="fillurl(-a)"></path><linearGradient gradientUnits="userSpaceOnUse" id="b" x1="14.869" x2="17.131" y1="7.5" y2="7.5"><stop offset="0" stop-color="#ffffff" class="stop-color-face2e"></stop><stop offset="1" stop-color="#ffffff" class="stop-color-fd9f27"></stop></linearGradient><path fill="url(#b)" d="m16.465 8 .666-1h-2.262l.666 1z" class="fillurl(-b)"></path><path d="M14.168 9.555a.994.994 0 0 0 .618.418L12.02 23.804a.997.997 0 0 0 .426 1.028l3 2a.995.995 0 0 0 1.109 0l3-2c.337-.225.505-.631.426-1.028L17.214 9.973a.997.997 0 0 0 .618-.418l2-3A.998.998 0 0 0 19 5h-6a1 1 0 0 0-.832 1.554l2 3.001zm3.72 13.985L16 24.798l-1.888-1.259L16 14.099l1.888 9.441zM17.131 7l-.667 1h-.93l-.667-1h2.264z" fill="#ffffff" class="fill-000000"></path></svg>