<?xml version="1.0" encoding="UTF-8"?>
<svg version="1.1" xmlns="http://www.w3.org/2000/svg" width="314" height="274">
<path d="M0 0 C103.62 0 207.24 0 314 0 C314 90.42 314 180.84 314 274 C210.38 274 106.76 274 0 274 C0 183.58 0 93.16 0 0 Z " fill="#010A0F" transform="translate(0,0)"/>
<path d="M0 0 C8.58 0 17.16 0 26 0 C38 24.70588235 38 24.70588235 38 32 C41.33591796 29.77605469 41.9797971 28.40483634 44 25 C46.20633465 21.9914293 48.51061281 19.06081005 50.8125 16.125 C51.71838867 14.95904297 51.71838867 14.95904297 52.64257812 13.76953125 C53.8452408 12.22898379 55.06263265 10.6998146 56.29492188 9.18286133 C58.01297627 7.06742285 58.01297627 7.06742285 59.29882812 4.88549805 C60.73426873 2.72824056 61.81887038 1.41646663 64 0 C68.65671049 -0.84177976 73.16303857 -0.66082734 77.875 -0.4375 C79.76605469 -0.39012695 79.76605469 -0.39012695 81.6953125 -0.34179688 C84.79926335 -0.25949515 87.8984281 -0.1445621 91 0 C89.28203695 3.57956532 87.19866893 6.48713617 84.75 9.625 C84.31888916 10.17986084 83.88777832 10.73472168 83.44360352 11.30639648 C81.96580546 13.20694063 80.48301637 15.10352548 79 17 C76.64439341 20.01971246 74.2907169 23.04092507 71.9375 26.0625 C71.34203369 26.8263501 70.74656738 27.5902002 70.13305664 28.37719727 C65.88114874 33.84059165 61.69980772 39.35090605 57.57421875 44.91015625 C56 47 56 47 55 48 C55.13523996 54.08579828 57.61434895 58.61806636 60.4296875 63.9375 C62.12060052 67.23520101 63.56972936 70.58157828 65 74 C65.99906369 76.35456417 66.99906209 78.70873196 68 81.0625 C68.495 82.22910156 68.99 83.39570313 69.5 84.59765625 C70.49144779 86.84648703 71.55388883 89.0654667 72.6875 91.24609375 C74 94 74 94 74 97 C74.66 97 75.32 97 76 97 C76 97.99 76 98.98 76 100 C67.09 100 58.18 100 49 100 C46.01856108 94.03712217 43.24427986 88.44736555 40.8125 82.3125 C40.32394531 81.09175781 39.83539063 79.87101562 39.33203125 78.61328125 C38.03464761 75.09398546 36.97969064 71.61696214 36 68 C35.34 68 34.68 68 34 68 C33.7525 68.54785156 33.505 69.09570312 33.25 69.66015625 C31.74360569 72.4799381 29.93464489 74.89136913 28 77.4375 C27.20464844 78.48679687 26.40929687 79.53609375 25.58984375 80.6171875 C22.49840081 84.66248693 19.39521245 88.69895449 16.27539062 92.72241211 C14.43127335 95.10613478 12.67291933 97.490621 11 100 C8.20263672 100.34057617 8.20263672 100.34057617 4.6796875 100.29296875 C3.42285156 100.28330078 2.16601562 100.27363281 0.87109375 100.26367188 C-1.10697266 100.2259668 -1.10697266 100.2259668 -3.125 100.1875 C-4.46482903 100.17245483 -5.80467404 100.15876613 -7.14453125 100.14648438 C-10.43008842 100.11102872 -13.71484582 100.06160849 -17 100 C-17 99.01 -17 98.02 -17 97 C-16.34 97 -15.68 97 -15 97 C-14.6596875 96.19369141 -14.6596875 96.19369141 -14.3125 95.37109375 C-12.59107746 92.26126195 -10.32830909 89.72353894 -8 87.0625 C-4.15380287 82.59705371 -0.43840879 78.06937006 3.125 73.375 C7.00360088 68.26569663 10.99716131 63.27928807 15.08984375 58.33984375 C15.72019531 57.56769531 16.35054687 56.79554688 17 56 C17.57878906 55.34128906 18.15757813 54.68257812 18.75390625 54.00390625 C20.3566898 51.42638914 20.23372417 50.0093359 20 47 C19.16632433 44.58346014 19.16632433 44.58346014 17.91796875 42.14453125 C15.7806858 37.65224425 13.71878032 33.13761357 11.73828125 28.57421875 C11.3191597 27.61069992 11.3191597 27.61069992 10.89157104 26.62771606 C10.31998638 25.31284064 9.74895525 23.99772446 9.1784668 22.68237305 C8.30573337 20.67191215 7.42925767 18.66310784 6.55273438 16.65429688 C5.98935383 15.35687047 5.42619475 14.05934786 4.86328125 12.76171875 C4.36094971 11.60631592 3.85861816 10.45091309 3.34106445 9.26049805 C2.09278823 6.2255938 1.03773009 3.11319026 0 0 Z " fill="#1B8B19" transform="translate(82,91)"/>
<path d="M0 0 C28.05 0 56.1 0 85 0 C85 1.65 85 3.3 85 5 C84.34 5 83.68 5 83 5 C82.67 9.95 82.34 14.9 82 20 C72.1 20.33 62.2 20.66 52 21 C51.60167969 23.46210937 51.20335937 25.92421875 50.79296875 28.4609375 C50.3958518 30.91375316 49.99859137 33.36654555 49.60131836 35.81933594 C49.33066155 37.4908613 49.06014787 39.16240984 48.78979492 40.83398438 C47.34179428 49.78624159 45.88591158 58.73715378 44.40234375 67.68359375 C44.22665108 68.7482637 44.22665108 68.7482637 44.04740906 69.83444214 C43.01133417 76.05823334 41.84492735 82.25448906 40.6484375 88.44921875 C40.19710528 90.92067047 39.81121786 93.40459548 39.4765625 95.89453125 C39 99 39 99 38 100 C36.29227642 100.08713831 34.58101351 100.10700007 32.87109375 100.09765625 C31.83662109 100.09443359 30.80214844 100.09121094 29.73632812 100.08789062 C28.64771484 100.07951172 27.55910156 100.07113281 26.4375 100.0625 C24.7987793 100.05573242 24.7987793 100.05573242 23.12695312 100.04882812 C20.41791505 100.03699826 17.70898401 100.02051543 15 100 C14.03961576 96.59826933 14.12074182 94.9336678 15.25 91.5625 C16.84773902 86.11861998 17.69190496 80.73314902 18.4375 75.125 C19.42093302 67.75749708 20.61288799 60.47774274 22.0625 53.1875 C23.56517701 45.62428308 24.70995841 38.11448144 25.5078125 30.4453125 C26 27 26 27 28 20 C17.77 20 7.54 20 -3 20 C-2.67 18.02 -2.34 16.04 -2 14 C-1.34 9.38 -0.68 4.76 0 0 Z " fill="#1D9016" transform="translate(181,91)"/>
<path d="M0 0 C28.05 0 56.1 0 85 0 C85 1.65 85 3.3 85 5 C84.34 5 83.68 5 83 5 C82.67 9.95 82.34 14.9 82 20 C72.1 20.33 62.2 20.66 52 21 C51.60167969 23.46210937 51.20335937 25.92421875 50.79296875 28.4609375 C50.3958518 30.91375316 49.99859137 33.36654555 49.60131836 35.81933594 C49.33066155 37.4908613 49.06014787 39.16240984 48.78979492 40.83398438 C47.34179428 49.78624159 45.88591158 58.73715378 44.40234375 67.68359375 C44.22665108 68.7482637 44.22665108 68.7482637 44.04740906 69.83444214 C43.01133417 76.05823334 41.84492735 82.25448906 40.6484375 88.44921875 C40.19710528 90.92067047 39.81121786 93.40459548 39.4765625 95.89453125 C39 99 39 99 38 100 C36.29227642 100.08713831 34.58101351 100.10700007 32.87109375 100.09765625 C31.83662109 100.09443359 30.80214844 100.09121094 29.73632812 100.08789062 C28.64771484 100.07951172 27.55910156 100.07113281 26.4375 100.0625 C24.7987793 100.05573242 24.7987793 100.05573242 23.12695312 100.04882812 C20.41791505 100.03699826 17.70898401 100.02051543 15 100 C14.03961576 96.59826933 14.12074182 94.9336678 15.25 91.5625 C16.84773902 86.11861998 17.69190496 80.73314902 18.4375 75.125 C19.42093302 67.75749708 20.61288799 60.47774274 22.0625 53.1875 C23.56517701 45.62428308 24.70995841 38.11448144 25.5078125 30.4453125 C26 27 26 27 28 20 C17.77 20 7.54 20 -3 20 C-2.67 18.02 -2.34 16.04 -2 14 C-1.34 9.38 -0.68 4.76 0 0 Z M1 1 C0.67 6.61 0.34 12.22 0 18 C1.08108449 19.30661495 1.08108449 19.30661495 3.68383789 19.11352539 C5.43555298 19.10567017 5.43555298 19.10567017 7.22265625 19.09765625 C9.11274414 19.09282227 9.11274414 19.09282227 11.04101562 19.08789062 C12.38151109 19.07953403 13.72200588 19.07106907 15.0625 19.0625 C16.40689942 19.0574866 17.7513006 19.05292342 19.09570312 19.04882812 C22.39717941 19.03699488 25.69856803 19.02050971 29 19 C27.44797854 31.23379132 25.68629824 43.38792834 23.35839844 55.50048828 C22.43738323 60.34085347 21.69779394 65.13440389 21.23828125 70.04150391 C20.92892218 72.58420722 20.27218809 75.01388986 19.609375 77.484375 C18.74063135 81.070727 18.05855902 84.68689327 17.375 88.3125 C17.23980957 89.01898682 17.10461914 89.72547363 16.96533203 90.45336914 C16.42514848 93.35068566 16 96.04563483 16 99 C23.26 99 30.52 99 38 99 C38.185625 96.586875 38.185625 96.586875 38.375 94.125 C38.70159875 90.40461426 39.2005651 86.88113001 40.0625 83.25 C41.5200598 76.57761513 41.16294776 69.78948997 41 63 C41.66 63 42.32 63 43 63 C44.23975073 56.77486867 45.20623902 50.55444877 45.9375 44.25 C46.73965369 37.382178 47.97632861 30.67568228 49.4140625 23.9140625 C50.06570898 21.16860513 50.06570898 21.16860513 50 19 C60.23 19 70.46 19 81 19 C81.33 13.39 81.66 7.78 82 2 C55.27 1.67 28.54 1.34 1 1 Z " fill="#227229" transform="translate(181,91)"/>
<path d="M0 0 C21.45 0 42.9 0 65 0 C64.34 6.27 63.68 12.54 63 19 C53.1 19.33 43.2 19.66 33 20 C32.60167969 22.46210937 32.20335937 24.92421875 31.79296875 27.4609375 C31.3958518 29.91375316 30.99859137 32.36654555 30.60131836 34.81933594 C30.33066155 36.4908613 30.06014787 38.16240984 29.78979492 39.83398438 C28.34179428 48.78624159 26.88591158 57.73715378 25.40234375 66.68359375 C25.2852153 67.39337372 25.16808685 68.10315369 25.04740906 68.83444214 C24.01133417 75.05823334 22.84492735 81.25448906 21.6484375 87.44921875 C21.00707898 90.96123621 20.48125124 94.4632574 20 98 C19.67 98 19.34 98 19 98 C18.78383005 91.68303358 19.08341703 85.9934275 20.48828125 79.8359375 C21.5476179 73.96510996 21.69853433 67.94998023 22 62 C22.66 62 23.32 62 24 62 C24.07516846 61.26064209 24.15033691 60.52128418 24.2277832 59.75952148 C27.88421981 24.23156039 27.88421981 24.23156039 31 18 C41.23 18 51.46 18 62 18 C62 13.71 62 9.42 62 5 C62.33 3.68 62.66 2.36 63 1 C42.21 1 21.42 1 0 1 C0 0.67 0 0.34 0 0 Z " fill="#2C7F28" transform="translate(200,92)"/>
<path d="M0 0 C0.66 0 1.32 0 2 0 C0.54550844 3.14341978 -1.21972734 5.78967484 -3.30078125 8.5546875 C-3.94853516 9.41707031 -4.59628906 10.27945313 -5.26367188 11.16796875 C-5.93978516 12.06128906 -6.61589844 12.95460938 -7.3125 13.875 C-7.97701172 14.76058594 -8.64152344 15.64617187 -9.32617188 16.55859375 C-12.12162089 20.2692689 -14.90915578 23.94004771 -17.96875 27.4375 C-20.29147904 29.86488079 -20.29147904 29.86488079 -20.1875 33.125 C-19.14087009 37.69765496 -16.74916491 41.82067333 -14.5703125 45.9375 C-12.87965458 49.2347035 -11.43557903 52.58444053 -10 56 C-9.47019531 57.20140625 -8.94039062 58.4028125 -8.39453125 59.640625 C-7.87246094 60.83171875 -7.35039062 62.0228125 -6.8125 63.25 C-6.28269531 64.45140625 -5.75289062 65.6528125 -5.20703125 66.890625 C-4 70 -4 70 -4 73 C-7.30367416 71.34816292 -8.01195823 67.70960267 -9.375 64.4375 C-11.28000127 59.9524892 -13.17262054 55.50619489 -15.4375 51.1875 C-17 48 -17 48 -17 45 C-17.66 45 -18.32 45 -19 45 C-19.474375 43.865625 -19.94875 42.73125 -20.4375 41.5625 C-21.63622083 38.24259834 -21.63622083 38.24259834 -23 37 C-23.14115161 34.32941149 -23.04247107 31.67567762 -23 29 C-22.34 29 -21.68 29 -21 29 C-20.773125 28.46375 -20.54625 27.9275 -20.3125 27.375 C-19 25 -19 25 -16.4375 22 C-14.3321887 19.40884763 -13.37095196 18.214917 -13 15 C-11.68 14.67 -10.36 14.34 -9 14 C-9 12.68 -9 11.36 -9 10 C-7.53856712 8.73342484 -6.06879343 7.47256232 -4.52734375 6.3046875 C-2.44943772 4.52969872 -1.34432489 2.35256855 0 0 Z " fill="#257C2D" transform="translate(157,109)"/>
<path d="M0 0 C0.66 0 1.32 0 2 0 C6.40774487 10.37357631 6.40774487 10.37357631 7 16 C7.66 16 8.32 16 9 16 C9.31453125 16.7734375 9.6290625 17.546875 9.953125 18.34375 C12.80865179 25.32494285 12.80865179 25.32494285 16.0625 32.125 C17.58360623 35.09891789 18.95696534 38.10690164 20.25 41.1875 C20.58515625 41.98542969 20.9203125 42.78335938 21.265625 43.60546875 C22.08256994 46.26923072 22.30575929 48.23018057 22 51 C20.59167174 53.31871189 18.86365442 54.9965715 17 57 C16.34 56.67 15.68 56.34 15 56 C15.66 55.278125 16.32 54.55625 17 53.8125 C19.2549336 50.64149962 19.36462328 49.75869326 19 46 C18.16856807 43.58556247 18.16856807 43.58556247 16.921875 41.1484375 C14.77775054 36.6409375 12.70080683 32.11323281 10.703125 27.5390625 C10.42134399 26.89434998 10.13956299 26.24963745 9.84924316 25.58538818 C9.27338803 24.26634271 8.69815593 22.94702508 8.12353516 21.62744141 C7.53609582 20.28082948 6.94654055 18.93513883 6.35498047 17.59033203 C5.48707815 15.61696114 4.62566948 13.64086847 3.765625 11.6640625 C3.25805664 10.50342285 2.75048828 9.3427832 2.22753906 8.14697266 C1.15516425 5.39778585 0.45620425 2.90540829 0 0 Z " fill="#267E2F" transform="translate(83,92)"/>
<path d="M0 0 C0.33 0.99 0.66 1.98 1 3 C0.07421875 4.7890625 0.07421875 4.7890625 -1.3125 6.625 C-1.98732422 7.54152344 -1.98732422 7.54152344 -2.67578125 8.4765625 C-4 10 -4 10 -6 11 C-6.66 12.98 -7.32 14.96 -8 17 C-0.41 17 7.18 17 15 17 C15 17.33 15 17.66 15 18 C5.76 18 -3.48 18 -13 18 C-13 17.01 -13 16.02 -13 15 C-12.34 15 -11.68 15 -11 15 C-10.76539062 14.45859375 -10.53078125 13.9171875 -10.2890625 13.359375 C-8.6416356 10.34408456 -6.57346656 7.88815988 -4.375 5.25 C-3.55773437 4.26515625 -2.74046875 3.2803125 -1.8984375 2.265625 C-1.27195312 1.51796875 -0.64546875 0.7703125 0 0 Z " fill="#216F21" transform="translate(78,173)"/>
<path d="M0 0 C0.99 0.33 1.98 0.66 3 1 C1.10690634 3.54371744 -0.78997569 6.08458644 -2.6875 8.625 C-3.48317383 9.69427734 -3.48317383 9.69427734 -4.29492188 10.78515625 C-7.41797327 14.961998 -10.62183384 19.02642422 -14 23 C-14.33 22.34 -14.66 21.68 -15 21 C-14.22265625 19.2734375 -14.22265625 19.2734375 -13.0625 17.375 C-12.0415625 15.704375 -12.0415625 15.704375 -11 14 C-10.34 14 -9.68 14 -9 14 C-8.731875 13.030625 -8.46375 12.06125 -8.1875 11.0625 C-7.795625 10.051875 -7.40375 9.04125 -7 8 C-6.01 7.67 -5.02 7.34 -4 7 C-4 6.01 -4 5.02 -4 4 C-2 1.8125 -2 1.8125 0 0 Z " fill="#297D30" transform="translate(108,166)"/>
<path d="M0 0 C0.33 0.99 0.66 1.98 1 3 C-3.09372998 10.9214414 -9.92324226 17.56866284 -16 24 C-16.66 23.67 -17.32 23.34 -18 23 C-17.28714844 22.09378906 -16.57429688 21.18757813 -15.83984375 20.25390625 C-10.54192526 13.51648693 -5.25089488 6.77419203 0 0 Z " fill="#297B23" transform="translate(97,149)"/>
<path d="M0 0 C2.31 0 4.62 0 7 0 C8.1787322 2.39054107 9.34302997 4.78645215 10.5 7.1875 C10.83386719 7.86103516 11.16773437 8.53457031 11.51171875 9.22851562 C13.29700132 12.96303529 14.46127195 15.75794549 14 20 C10.02074046 17.34716031 9.56439522 14.25474219 8.3125 9.875 C7.97508789 8.74384766 7.97508789 8.74384766 7.63085938 7.58984375 C7.07745009 5.72944657 6.53743072 3.86507579 6 2 C3.03 1.505 3.03 1.505 0 1 C0 0.67 0 0.34 0 0 Z " fill="#2B7C2C" transform="translate(101,91)"/>
<path d="M0 0 C3 2 3 2 3.73046875 4.1640625 C3.88128906 4.97617188 4.03210938 5.78828125 4.1875 6.625 C4.34605469 7.44226563 4.50460938 8.25953125 4.66796875 9.1015625 C4.83232422 10.04128906 4.83232422 10.04128906 5 11 C8.16605307 8.88929795 9.19587357 7.26460973 11 4 C11.75 5.75 11.75 5.75 12 8 C10.3125 10.25 10.3125 10.25 8 12 C6.68 12 5.36 12 4 12 C3.32332002 10.75539217 2.65905281 9.50403104 2 8.25 C1.62875 7.55390625 1.2575 6.8578125 0.875 6.140625 C0 4 0 4 0 0 Z " fill="#246C22" transform="translate(115,112)"/>
<path d="M0 0 C0.99 0 1.98 0 3 0 C2.34 1.65 1.68 3.3 1 5 C0.34 5 -0.32 5 -1 5 C-1.2475 5.61875 -1.495 6.2375 -1.75 6.875 C-3.20628639 9.35068687 -4.37812506 9.95125002 -7 11 C-5.78329471 8.2347607 -4.24570702 5.74946103 -2.5625 3.25 C-2.15128906 2.63640625 -1.74007812 2.0228125 -1.31640625 1.390625 C-0.88199219 0.93171875 -0.44757813 0.4728125 0 0 Z " fill="#26831D" transform="translate(142,95)"/>
<path d="M0 0 C0.66 0 1.32 0 2 0 C2.34933594 0.92683594 2.69867188 1.85367188 3.05859375 2.80859375 C3.51363281 4.00613281 3.96867187 5.20367187 4.4375 6.4375 C4.88996094 7.63246094 5.34242187 8.82742187 5.80859375 10.05859375 C6.7144826 12.84445723 6.7144826 12.84445723 8 14 C8.04063832 15.66617115 8.042721 17.33388095 8 19 C3.37298119 13.7119785 1.79938569 6.64388562 0 0 Z " fill="#2A7C2F" transform="translate(118,159)"/>
<path d="M0 0 C0.33 1.32 0.66 2.64 1 4 C-4.28 4 -9.56 4 -15 4 C-15 3.67 -15 3.34 -15 3 C-14.00097656 2.86722656 -13.00195312 2.73445312 -11.97265625 2.59765625 C-10.68230469 2.42105469 -9.39195312 2.24445313 -8.0625 2.0625 C-6.77472656 1.88847656 -5.48695313 1.71445313 -4.16015625 1.53515625 C-1.14533687 1.33837577 -1.14533687 1.33837577 0 0 Z " fill="#19971D" transform="translate(217,186)"/>
<path d="M0 0 C3.55811094 4.40528021 6 8.24512263 6 14 C5.34 14 4.68 14 4 14 C3.525625 12.865625 3.05125 11.73125 2.5625 10.5625 C1.36377917 7.24259834 1.36377917 7.24259834 0 6 C-0.04080783 4.00041636 -0.04254356 1.99954746 0 0 Z " fill="#328031" transform="translate(134,140)"/>
<path d="M0 0 C0.33 0 0.66 0 1 0 C1.33 1.65 1.66 3.3 2 5 C5.63 5.33 9.26 5.66 13 6 C13 6.33 13 6.66 13 7 C8.05 7 3.1 7 -2 7 C-1 1 -1 1 0 0 Z " fill="#238927" transform="translate(180,104)"/>
<path d="M0 0 C0.33 0 0.66 0 1 0 C0.85805236 2.06277107 0.71127784 4.12521031 0.5625 6.1875 C0.48128906 7.33605469 0.40007812 8.48460937 0.31640625 9.66796875 C0.04596188 12.51598171 -0.37521747 15.21210482 -1 18 C-3.09972674 14.58794404 -3.33083127 11.9699753 -3 8 C-2.0625 5.875 -2.0625 5.875 -1 4 C-0.63215869 2.6757713 -0.28797019 1.34386088 0 0 Z " fill="#0F2512" transform="translate(206,121)"/>
<path d="M0 0 C6.6 0 13.2 0 20 0 C19.01 1.485 19.01 1.485 18 3 C17.48953125 2.84660156 16.9790625 2.69320312 16.453125 2.53515625 C13.2250662 1.83094597 10.04581999 1.65111796 6.75 1.4375 C5.48671875 1.35371094 4.2234375 1.26992187 2.921875 1.18359375 C1.95765625 1.12300781 0.9934375 1.06242187 0 1 C0 0.67 0 0.34 0 0 Z " fill="#169413" transform="translate(150,92)"/>
<path d="M0 0 C0.66 0.66 1.32 1.32 2 2 C1.38511719 2.68835938 1.38511719 2.68835938 0.7578125 3.390625 C-0.05042969 4.31101563 -0.05042969 4.31101563 -0.875 5.25 C-1.40867188 5.85328125 -1.94234375 6.4565625 -2.4921875 7.078125 C-3.9797487 8.97418746 -5.00322436 10.81290005 -6 13 C-6.33 11.35 -6.66 9.7 -7 8 C-6.34 8 -5.68 8 -5 8 C-4.731875 7.4225 -4.46375 6.845 -4.1875 6.25 C-2.98280141 3.9674132 -1.59201885 2.0262058 0 0 Z " fill="#29752F" transform="translate(141,130)"/>
<path d="M0 0 C0.99 0 1.98 0 3 0 C1.34832443 3.5786304 -0.78286492 6.74820188 -3 10 C-3.33 8.68 -3.66 7.36 -4 6 C-3.34 6 -2.68 6 -2 6 C-1.7834375 5.071875 -1.7834375 5.071875 -1.5625 4.125 C-1 2 -1 2 0 0 Z " fill="#1A7E2D" transform="translate(170,91)"/>
<path d="M0 0 C0.33 0 0.66 0 1 0 C2.33257403 9.41002278 2.33257403 9.41002278 1 14 C0.34 13.67 -0.32 13.34 -1 13 C-0.67 8.71 -0.34 4.42 0 0 Z " fill="#297B24" transform="translate(207,118)"/>
<path d="M0 0 C0.66 0.33 1.32 0.66 2 1 C-0.97 4.96 -0.97 4.96 -4 9 C-5 6 -5 6 -4.25 3.9375 C-3 2 -3 2 0 0 Z " fill="#277D2D" transform="translate(116,157)"/>
<path d="M0 0 C0.99 0 1.98 0 3 0 C2.67 1.65 2.34 3.3 2 5 C0.68 5 -0.64 5 -2 5 C-1.34 3.35 -0.68 1.7 0 0 Z " fill="#2A8922" transform="translate(68,185)"/>
<path d="M0 0 C0 3 0 3 -1.3125 4.38671875 C-2.875 5.59114583 -4.4375 6.79557292 -6 8 C-6.66 7.67 -7.32 7.34 -8 7 C-5.61042731 3.75700849 -3.7952131 1.49097658 0 0 Z " fill="#0B0E0B" transform="translate(145,131)"/>
<path d="M0 0 C0.66 0.66 1.32 1.32 2 2 C-0.31 4.64 -2.62 7.28 -5 10 C-5.66 9.67 -6.32 9.34 -7 9 C-4.69 6.03 -2.38 3.06 0 0 Z " fill="#0B1F0F" transform="translate(150,121)"/>
<path d="M0 0 C3 2 3 2 3.51171875 3.9453125 C3.67447917 5.96354167 3.83723958 7.98177083 4 10 C1.16625119 6.79663178 0.4794463 4.21912747 0 0 Z " fill="#2A822C" transform="translate(115,112)"/>
<path d="M0 0 C0 0.99 0 1.98 0 3 C-2.5 5.1875 -2.5 5.1875 -5 7 C-5.66 6.67 -6.32 6.34 -7 6 C-3.375 1.125 -3.375 1.125 0 0 Z " fill="#0E140C" transform="translate(167,102)"/>
<path d="M0 0 C0.66 0.33 1.32 0.66 2 1 C0.02 3.31 -1.96 5.62 -4 8 C-4.33 7.01 -4.66 6.02 -5 5 C-3.35 3.35 -1.7 1.7 0 0 Z " fill="#267F34" transform="translate(164,101)"/>
</svg>
